<?xml version="1.0" standalone="no"?>
<!DOCTYPE svg PUBLIC "-//W3C//DTD SVG 20010904//EN"
 "http://www.w3.org/TR/2001/REC-SVG-20010904/DTD/svg10.dtd">
<svg version="1.0" xmlns="http://www.w3.org/2000/svg"
 width="800.000000pt" height="800.000000pt" viewBox="0 0 800.000000 800.000000"
 preserveAspectRatio="xMidYMid meet">
<metadata>
Created by potrace 1.11, written by Peter Selinger 2001-2013
</metadata>
<g transform="translate(0.000000,800.000000) scale(0.100000,-0.100000)"
fill="#000000" stroke="none">
<path d="M3803 7736 c-74 -14 -177 -46 -251 -77 -83 -36 -2458 -1412 -2529
-1466 -186 -140 -325 -351 -391 -590 l-27 -98 0 -1505 0 -1505 27 -98 c66
-239 205 -450 391 -590 113 -86 2475 -1445 2579 -1484 155 -59 206 -67 393
-67 152 0 180 3 267 26 53 15 134 44 180 66 83 39 2364 1352 2468 1421 73 48
201 170 262 251 103 134 184 339 208 520 13 101 13 2819 0 2920 -24 181 -105
386 -208 520 -61 81 -189 203 -262 251 -104 69 -2385 1382 -2468 1421 -134 64
-252 90 -422 94 -95 2 -170 -1 -217 -10z m-815 -2438 l3 -158 1004 0 1005 0 0
160 0 160 223 -2 222 -3 -2 -230 c-1 -196 -4 -241 -22 -308 -85 -323 -350
-589 -847 -848 l-132 -70 132 -68 c489 -252 759 -522 848 -848 18 -68 21 -107
22 -308 l1 -230 -222 -3 -223 -2 0 155 0 155 -1005 0 -1004 0 -3 -152 -3 -153
-223 -3 -224 -2 4 247 c4 239 5 251 32 333 56 169 135 290 289 437 147 140
339 269 571 385 58 29 106 55 106 58 0 3 -60 35 -134 73 -203 102 -416 248
-546 373 -155 150 -229 263 -286 434 -27 82 -28 94 -32 333 l-4 247 224 -2
223 -3 3 -157z"/>
<path d="M3000 5032 c0 -56 64 -191 127 -269 l34 -43 835 0 834 0 46 63 c26
34 56 82 67 107 18 40 47 133 47 153 0 4 -448 7 -995 7 -960 0 -995 -1 -995
-18z"/>
<path d="M3275 4614 c112 -93 309 -209 550 -325 l166 -79 151 71 c83 39 192
93 242 121 111 61 304 188 330 217 l19 21 -744 0 -744 -1 30 -25z"/>
<path d="M3743 3665 c-238 -118 -332 -173 -437 -256 l-49 -39 732 0 c462 0
730 4 726 10 -12 20 -175 130 -270 183 -55 31 -180 94 -277 141 l-177 84 -248
-123z"/>
<path d="M3127 3238 c-65 -82 -127 -215 -127 -275 l0 -23 996 0 996 0 -7 37
c-12 68 -47 145 -99 222 l-52 76 -836 3 -837 2 -34 -42z"/>
</g>
</svg>
