<?xml version="1.0" encoding="utf-8"?>
<!-- Generator: Adobe Illustrator 22.1.0, SVG Export Plug-In . SVG Version: 6.00 Build 0)  -->
<svg version="1.1" xmlns="http://www.w3.org/2000/svg" xmlns:xlink="http://www.w3.org/1999/xlink" x="0px" y="0px"
	 viewBox="0 0 580 180" style="enable-background:new 0 0 580 180;" xml:space="preserve">
<style type="text/css">
	.st0{display:none;}
	.st1{display:inline;fill:#F8D43F;}
	.st2{display:inline;}
	.st3{fill:#FFFFFF;}
	.st4{fill:none;stroke:#FFFFFF;stroke-width:2.1263;stroke-miterlimit:10;}
	.st5{fill:none;stroke:#FFFFFF;stroke-width:2.0906;stroke-miterlimit:10;}
	.st6{fill:none;stroke:#FFFFFF;stroke-width:2.1701;stroke-miterlimit:10;}
	.st7{display:inline;fill:#D4155B;}
	.st8{display:inline;fill:#009245;}
	.st9{display:inline;fill:url(#SVGID_1_);}
	.st10{fill:none;stroke:#FFFFFF;stroke-width:1.8686;stroke-miterlimit:10;}
	.st11{fill:none;stroke:#FFFFFF;stroke-width:1.8371;stroke-miterlimit:10;}
	.st12{fill:none;stroke:#FFFFFF;stroke-width:1.9071;stroke-miterlimit:10;}
	.st13{fill:#A8A8A8;}
	.st14{fill:#121212;}
	.st15{fill:none;stroke:#000000;stroke-width:1.1907;stroke-miterlimit:10;}
</style>
<g id="yellow" class="st0">
	<path class="st1" d="M-67.5,52.6v68.9c0,10,5.3,19.2,13.9,24.1L6.1,180c8.6,5,19.2,5,27.9,0l59.6-34.4c8.6-5,13.9-14.2,13.9-24.1
		V52.6c0-10-5.3-19.2-13.9-24.1L33.9-6c-8.6-5-19.2-5-27.9,0l-59.6,34.4C-62.2,33.4-67.5,42.6-67.5,52.6z"/>
	<g class="st2">
		<path class="st3" d="M55,105.9c-0.9-1.8-2.1-3.4-3.4-5c-1.7-2-3.7-3.7-5.8-5.4c-2.3-1.8-4.8-3.3-7.3-4.8c-2.3-1.3-4.7-2.5-7.1-3.7
			c0.4-0.2,0.7-0.4,1.1-0.5c3-1.5,6-3,8.7-4.8c2.4-1.5,4.7-3.2,6.8-5c1.7-1.5,3.3-3.1,4.7-4.9c1.2-1.6,2.2-3.2,3-5
			c1-2.2,1.6-4.6,1.7-6.9l0.2-3.3c0-2,0-5.2,0-7.2H46c0,2.1,0,5.7,0,7.9l0,0c-0.1,1.4-0.2,2.9-0.5,4.3c-0.4,1.7-1.2,3.3-2.3,4.8
			c-1.2,1.7-2.7,3.1-4.3,4.5c-2.5,2.1-5.4,3.9-8.3,5.5c-3.1,1.7-6.3,3.2-9.6,4.7c-0.3,0.2-0.7,0.3-1,0.5c-0.3-0.2-0.7-0.3-1-0.5
			c-3.2-1.5-6.5-3-9.6-4.7c-3-1.7-5.8-3.4-8.3-5.5c-1.2-1-2.3-2-3.3-3.2l0.1,0c-1.2-1.5-2.2-3.1-2.9-4.8c-0.3-0.8-0.5-1.7-0.7-2.5
			c-0.1-0.9-0.2-1.7-0.3-2.6c0-0.1,0-0.3,0-0.4c0-2.1,0-5.7,0-7.9h-11.5l0,7.3c0,2.1,0.1,4.2,0.6,6.3c0.2,0.8,0.4,1.6,0.7,2.4
			c0.2,0.5,0.4,1,0.6,1.4c0.8,1.7,1.8,3.4,3,5c1.3,1.8,2.9,3.4,4.7,4.9c2.1,1.8,4.4,3.4,6.8,5c2.8,1.8,5.7,3.3,8.7,4.8
			C8,86.7,8.3,86.9,8.7,87c-2.4,1.2-4.8,2.3-7.1,3.7c-2.6,1.5-5,3-7.3,4.8c-2.1,1.7-4.1,3.4-5.8,5.4c-1.3,1.6-2.5,3.2-3.4,5
			c-0.8,1.6-1.5,3.3-1.9,5c-0.5,2.1-0.6,4.2-0.6,6.4c0,2,0,5.2,0,7.2H-6c0-2.1,0-5.7,0-7.9c0-1.9,0.3-3.7,1-5.5
			c0.6-1.7,1.6-3.3,2.9-4.8c1.5-1.8,3.4-3.4,5.4-4.9c2.6-1.9,5.4-3.5,8.4-5c2.7-1.3,5.5-2.7,8.3-4c2.8,1.3,5.5,2.6,8.3,4
			c3,1.5,5.8,3.1,8.4,5c2,1.5,3.9,3,5.4,4.9c1.2,1.5,2.2,3.1,2.9,4.8c0.7,1.8,1,3.6,1,5.5c0,2.1,0,5.7,0,7.9h11.5c0-2,0-5.2,0-7.2
			c0-2.1-0.1-4.3-0.6-6.4C56.5,109.2,55.8,107.5,55,105.9z"/>
		<g>
			<line class="st4" x1="-11.3" y1="58.8" x2="51.3" y2="58.8"/>
			<line class="st5" x1="-10.2" y1="69.4" x2="50.2" y2="69.4"/>
			<line class="st6" x1="-11.3" y1="104.4" x2="51.3" y2="104.4"/>
			<line class="st6" x1="-11.3" y1="115.4" x2="51.3" y2="115.4"/>
		</g>
	</g>
</g>
<g id="red" class="st0">
	<path class="st7" d="M-67.5,52.6v68.9c0,10,5.3,19.2,13.9,24.1L6.1,180c8.6,5,19.2,5,27.9,0l59.6-34.4c8.6-5,13.9-14.2,13.9-24.1
		V52.6c0-10-5.3-19.2-13.9-24.1L33.9-6c-8.6-5-19.2-5-27.9,0l-59.6,34.4C-62.2,33.4-67.5,42.6-67.5,52.6z"/>
	<g class="st2">
		<path class="st3" d="M55,105.9c-0.9-1.8-2.1-3.4-3.4-5c-1.7-2-3.7-3.7-5.8-5.4c-2.3-1.8-4.8-3.3-7.3-4.8c-2.3-1.3-4.7-2.5-7.1-3.7
			c0.4-0.2,0.7-0.4,1.1-0.5c3-1.5,6-3,8.7-4.8c2.4-1.5,4.7-3.2,6.8-5c1.7-1.5,3.3-3.1,4.7-4.9c1.2-1.6,2.2-3.2,3-5
			c1-2.2,1.6-4.6,1.7-6.9l0.2-3.3c0-2,0-5.2,0-7.2H46c0,2.1,0,5.7,0,7.9l0,0c-0.1,1.4-0.2,2.9-0.5,4.3c-0.4,1.7-1.2,3.3-2.3,4.8
			c-1.2,1.7-2.7,3.1-4.3,4.5c-2.5,2.1-5.4,3.9-8.3,5.5c-3.1,1.7-6.3,3.2-9.6,4.7c-0.3,0.2-0.7,0.3-1,0.5c-0.3-0.2-0.7-0.3-1-0.5
			c-3.2-1.5-6.5-3-9.6-4.7c-3-1.7-5.8-3.4-8.3-5.5c-1.2-1-2.3-2-3.3-3.2l0.1,0c-1.2-1.5-2.2-3.1-2.9-4.8c-0.3-0.8-0.5-1.7-0.7-2.5
			c-0.1-0.9-0.2-1.7-0.3-2.6c0-0.1,0-0.3,0-0.4c0-2.1,0-5.7,0-7.9h-11.5l0,7.3c0,2.1,0.1,4.2,0.6,6.3c0.2,0.8,0.4,1.6,0.7,2.4
			c0.2,0.5,0.4,1,0.6,1.4c0.8,1.7,1.8,3.4,3,5c1.3,1.8,2.9,3.4,4.7,4.9c2.1,1.8,4.4,3.4,6.8,5c2.8,1.8,5.7,3.3,8.7,4.8
			C8,86.7,8.3,86.9,8.7,87c-2.4,1.2-4.8,2.3-7.1,3.7c-2.6,1.5-5,3-7.3,4.8c-2.1,1.7-4.1,3.4-5.8,5.4c-1.3,1.6-2.5,3.2-3.4,5
			c-0.8,1.6-1.5,3.3-1.9,5c-0.5,2.1-0.6,4.2-0.6,6.4c0,2,0,5.2,0,7.2H-6c0-2.1,0-5.7,0-7.9c0-1.9,0.3-3.7,1-5.5
			c0.6-1.7,1.6-3.3,2.9-4.8c1.5-1.8,3.4-3.4,5.4-4.9c2.6-1.9,5.4-3.5,8.4-5c2.7-1.3,5.5-2.7,8.3-4c2.8,1.3,5.5,2.6,8.3,4
			c3,1.5,5.8,3.1,8.4,5c2,1.5,3.9,3,5.4,4.9c1.2,1.5,2.2,3.1,2.9,4.8c0.7,1.8,1,3.6,1,5.5c0,2.1,0,5.7,0,7.9h11.5c0-2,0-5.2,0-7.2
			c0-2.1-0.1-4.3-0.6-6.4C56.5,109.2,55.8,107.5,55,105.9z"/>
		<g>
			<line class="st4" x1="-11.3" y1="58.8" x2="51.3" y2="58.8"/>
			<line class="st5" x1="-10.2" y1="69.4" x2="50.2" y2="69.4"/>
			<line class="st6" x1="-11.3" y1="104.4" x2="51.3" y2="104.4"/>
			<line class="st6" x1="-11.3" y1="115.4" x2="51.3" y2="115.4"/>
		</g>
	</g>
</g>
<g id="green" class="st0">
	<path class="st8" d="M-67.5,52.6v68.9c0,10,5.3,19.2,13.9,24.1L6.1,180c8.6,5,19.2,5,27.9,0l59.6-34.4c8.6-5,13.9-14.2,13.9-24.1
		V52.6c0-10-5.3-19.2-13.9-24.1L33.9-6c-8.6-5-19.2-5-27.9,0l-59.6,34.4C-62.2,33.4-67.5,42.6-67.5,52.6z"/>
	<g class="st2">
		<path class="st3" d="M55,105.9c-0.9-1.8-2.1-3.4-3.4-5c-1.7-2-3.7-3.7-5.8-5.4c-2.3-1.8-4.8-3.3-7.3-4.8c-2.3-1.3-4.7-2.5-7.1-3.7
			c0.4-0.2,0.7-0.4,1.1-0.5c3-1.5,6-3,8.7-4.8c2.4-1.5,4.7-3.2,6.8-5c1.7-1.5,3.3-3.1,4.7-4.9c1.2-1.6,2.2-3.2,3-5
			c1-2.2,1.6-4.6,1.7-6.9l0.2-3.3c0-2,0-5.2,0-7.2H46c0,2.1,0,5.7,0,7.9l0,0c-0.1,1.4-0.2,2.9-0.5,4.3c-0.4,1.7-1.2,3.3-2.3,4.8
			c-1.2,1.7-2.7,3.1-4.3,4.5c-2.5,2.1-5.4,3.9-8.3,5.5c-3.1,1.7-6.3,3.2-9.6,4.7c-0.3,0.2-0.7,0.3-1,0.5c-0.3-0.2-0.7-0.3-1-0.5
			c-3.2-1.5-6.5-3-9.6-4.7c-3-1.7-5.8-3.4-8.3-5.5c-1.2-1-2.3-2-3.3-3.2l0.1,0c-1.2-1.5-2.2-3.1-2.9-4.8c-0.3-0.8-0.5-1.7-0.7-2.5
			c-0.1-0.9-0.2-1.7-0.3-2.6c0-0.1,0-0.3,0-0.4c0-2.1,0-5.7,0-7.9h-11.5l0,7.3c0,2.1,0.1,4.2,0.6,6.3c0.2,0.8,0.4,1.6,0.7,2.4
			c0.2,0.5,0.4,1,0.6,1.4c0.8,1.7,1.8,3.4,3,5c1.3,1.8,2.9,3.4,4.7,4.9c2.1,1.8,4.4,3.4,6.8,5c2.8,1.8,5.7,3.3,8.7,4.8
			C8,86.7,8.3,86.9,8.7,87c-2.4,1.2-4.8,2.3-7.1,3.7c-2.6,1.5-5,3-7.3,4.8c-2.1,1.7-4.1,3.4-5.8,5.4c-1.3,1.6-2.5,3.2-3.4,5
			c-0.8,1.6-1.5,3.3-1.9,5c-0.5,2.1-0.6,4.2-0.6,6.4c0,2,0,5.2,0,7.2H-6c0-2.1,0-5.7,0-7.9c0-1.9,0.3-3.7,1-5.5
			c0.6-1.7,1.6-3.3,2.9-4.8c1.5-1.8,3.4-3.4,5.4-4.9c2.6-1.9,5.4-3.5,8.4-5c2.7-1.3,5.5-2.7,8.3-4c2.8,1.3,5.5,2.6,8.3,4
			c3,1.5,5.8,3.1,8.4,5c2,1.5,3.9,3,5.4,4.9c1.2,1.5,2.2,3.1,2.9,4.8c0.7,1.8,1,3.6,1,5.5c0,2.1,0,5.7,0,7.9h11.5c0-2,0-5.2,0-7.2
			c0-2.1-0.1-4.3-0.6-6.4C56.5,109.2,55.8,107.5,55,105.9z"/>
		<g>
			<line class="st4" x1="-11.3" y1="58.8" x2="51.3" y2="58.8"/>
			<line class="st5" x1="-10.2" y1="69.4" x2="50.2" y2="69.4"/>
			<line class="st6" x1="-11.3" y1="104.4" x2="51.3" y2="104.4"/>
			<line class="st6" x1="-11.3" y1="115.4" x2="51.3" y2="115.4"/>
		</g>
	</g>
</g>
<g id="green_gradient" class="st0">
	<linearGradient id="SVGID_1_" gradientUnits="userSpaceOnUse" x1="55.2771" y1="186.7245" x2="55.2771" y2="-6.7245">
		<stop  offset="0" style="stop-color:#010202"/>
		<stop  offset="1" style="stop-color:#47AE4C"/>
	</linearGradient>
	<path class="st9" d="M-32.2,55.6v68.9c0,10,5.3,19.2,13.9,24.1L41.3,183c8.6,5,19.2,5,27.9,0l59.6-34.4c8.6-5,13.9-14.2,13.9-24.1
		V55.6c0-10-5.3-19.2-13.9-24.1L69.2-3C60.6-8,50-8,41.3-3l-59.6,34.4C-26.9,36.4-32.2,45.6-32.2,55.6z"/>
	<g class="st2">
		<path class="st3" d="M90.3,108.9c-0.9-1.8-2.1-3.4-3.4-5c-1.7-2-3.7-3.7-5.8-5.4c-2.3-1.8-4.8-3.3-7.3-4.8
			c-2.3-1.3-4.7-2.5-7.1-3.7c0.4-0.2,0.7-0.4,1.1-0.5c3-1.5,6-3,8.7-4.8c2.4-1.5,4.7-3.2,6.8-5c1.7-1.5,3.3-3.1,4.7-4.9
			c1.2-1.6,2.2-3.2,3-5c1-2.2,1.6-4.6,1.7-6.9l0.2-3.3c0-2,0-5.2,0-7.2H81.2c0,2.1,0,5.7,0,7.9l0,0c-0.1,1.4-0.2,2.9-0.5,4.3
			c-0.4,1.7-1.2,3.3-2.3,4.8c-1.2,1.7-2.7,3.1-4.3,4.5c-2.5,2.1-5.4,3.9-8.3,5.5c-3.1,1.7-6.3,3.2-9.6,4.7c-0.3,0.2-0.7,0.3-1,0.5
			c-0.3-0.2-0.7-0.3-1-0.5c-3.2-1.5-6.5-3-9.6-4.7c-3-1.7-5.8-3.4-8.3-5.5c-1.2-1-2.3-2-3.3-3.2l0.1,0c-1.2-1.5-2.2-3.1-2.9-4.8
			c-0.3-0.8-0.5-1.7-0.7-2.5c-0.1-0.9-0.2-1.7-0.3-2.6c0-0.1,0-0.3,0-0.4c0-2.1,0-5.7,0-7.9H17.8l0,7.3c0,2.1,0.1,4.2,0.6,6.3
			c0.2,0.8,0.4,1.6,0.7,2.4c0.2,0.5,0.4,1,0.6,1.4c0.8,1.7,1.8,3.4,3,5c1.3,1.8,2.9,3.4,4.7,4.9c2.1,1.8,4.4,3.4,6.8,5
			c2.8,1.8,5.7,3.3,8.7,4.8c0.4,0.2,0.7,0.4,1.1,0.5c-2.4,1.2-4.8,2.3-7.1,3.7c-2.6,1.5-5,3-7.3,4.8c-2.1,1.7-4.1,3.4-5.8,5.4
			c-1.3,1.6-2.5,3.2-3.4,5c-0.8,1.6-1.5,3.3-1.9,5c-0.5,2.1-0.6,4.2-0.6,6.4c0,2,0,5.2,0,7.2h11.5c0-2.1,0-5.7,0-7.9
			c0-1.9,0.3-3.7,1-5.5c0.6-1.7,1.6-3.3,2.9-4.8c1.5-1.8,3.4-3.4,5.4-4.9c2.6-1.9,5.4-3.5,8.4-5c2.7-1.3,5.5-2.7,8.3-4
			c2.8,1.3,5.5,2.6,8.3,4c3,1.5,5.8,3.1,8.4,5c2,1.5,3.9,3,5.4,4.9c1.2,1.5,2.2,3.1,2.9,4.8c0.7,1.8,1,3.6,1,5.5c0,2.1,0,5.7,0,7.9
			h11.5c0-2,0-5.2,0-7.2c0-2.1-0.1-4.3-0.6-6.4C91.8,112.2,91.1,110.5,90.3,108.9z"/>
		<g>
			<line class="st4" x1="24" y1="61.8" x2="86.5" y2="61.8"/>
			<line class="st5" x1="25.1" y1="72.4" x2="85.5" y2="72.4"/>
			<line class="st6" x1="24" y1="107.4" x2="86.5" y2="107.4"/>
			<line class="st6" x1="24" y1="118.4" x2="86.5" y2="118.4"/>
		</g>
	</g>
</g>
<g id="black">
</g>
<g id="cryptocurrency">
</g>
<g id="helix">
	<g>
		<g>
			<path d="M6.8,59.7v60.5c0,8.8,4.7,16.8,12.2,21.2l52.4,30.3c7.6,4.4,16.9,4.4,24.5,0l52.4-30.3c7.6-4.4,12.2-12.5,12.2-21.2V59.7
				c0-8.8-4.7-16.8-12.2-21.2L96,8.3c-7.6-4.4-16.9-4.4-24.5,0L19.1,38.5C11.5,42.9,6.8,51,6.8,59.7z"/>
			<g>
				<path class="st3" d="M114.5,106.6c-0.8-1.6-1.8-3-3-4.4c-1.5-1.7-3.2-3.3-5.1-4.7c-2-1.6-4.2-2.9-6.4-4.2
					c-2-1.2-4.1-2.2-6.2-3.2c0.3-0.2,0.6-0.3,1-0.5c2.6-1.3,5.3-2.7,7.7-4.2c2.1-1.4,4.2-2.8,6-4.4c1.5-1.3,2.9-2.7,4.1-4.3
					c1-1.4,2-2.8,2.6-4.4c0.9-2,1.4-4,1.5-6.1l0.2-2.9c0-1.7,0-4.6,0-6.3h-10.1c0,1.9,0,5,0,6.9l0,0c0,1.3-0.2,2.5-0.5,3.8
					c-0.4,1.5-1.1,2.9-2,4.2c-1,1.5-2.3,2.7-3.8,3.9c-2.2,1.9-4.7,3.4-7.3,4.9c-2.7,1.5-5.6,2.8-8.4,4.2c-0.3,0.1-0.6,0.3-0.9,0.4
					c-0.3-0.1-0.6-0.3-0.9-0.4c-2.8-1.3-5.7-2.6-8.4-4.2c-2.6-1.5-5.1-3-7.3-4.9c-1-0.9-2-1.8-2.9-2.8l0.1,0c-1.1-1.3-2-2.7-2.5-4.3
					c-0.3-0.7-0.5-1.5-0.6-2.2c-0.1-0.8-0.2-1.5-0.2-2.3c0-0.1,0-0.2,0-0.3c0-1.9,0-5,0-6.9H50.8l0,6.4c0,1.9,0.1,3.7,0.5,5.5
					c0.2,0.7,0.4,1.4,0.6,2.1c0.2,0.4,0.3,0.8,0.5,1.3c0.7,1.5,1.6,3,2.6,4.4c1.2,1.6,2.6,3,4.1,4.3c1.8,1.6,3.9,3,6,4.4
					c2.4,1.6,5,2.9,7.7,4.2c0.3,0.2,0.6,0.3,1,0.5c-2.1,1-4.2,2-6.2,3.2c-2.2,1.3-4.4,2.7-6.4,4.2c-1.9,1.5-3.6,3-5.1,4.7
					c-1.2,1.4-2.2,2.8-3,4.4c-0.7,1.4-1.3,2.9-1.7,4.4c-0.4,1.9-0.5,3.7-0.5,5.6c0,1.7,0,4.6,0,6.3h10.1c0-1.9,0-5,0-6.9
					c0-1.7,0.3-3.3,0.9-4.9c0.6-1.5,1.4-2.9,2.5-4.3c1.3-1.6,3-3,4.8-4.3c2.2-1.7,4.7-3.1,7.4-4.4c2.4-1.2,4.8-2.3,7.3-3.5
					c2.4,1.2,4.9,2.3,7.3,3.5c2.6,1.3,5.1,2.7,7.4,4.4c1.8,1.3,3.4,2.7,4.8,4.3c1.1,1.3,2,2.7,2.5,4.3c0.6,1.6,0.9,3.2,0.9,4.9
					c0,1.9,0,5,0,6.9h10.1c0-1.7,0-4.6,0-6.3c0-1.9-0.1-3.8-0.5-5.6C115.8,109.5,115.2,108.1,114.5,106.6z"/>
				<g>
					<line class="st10" x1="56.3" y1="65.2" x2="111.2" y2="65.2"/>
					<line class="st11" x1="57.2" y1="74.5" x2="110.3" y2="74.5"/>
					<line class="st12" x1="56.3" y1="105.3" x2="111.2" y2="105.3"/>
					<line class="st12" x1="56.3" y1="115" x2="111.2" y2="115"/>
				</g>
			</g>
		</g>
		<path class="st13" d="M214.7,130.3c-1.1,1.5-2.7,2.2-4.4,2.2c-3.6,0-6.1-2.6-6.1-6.2c0-3.6,2.5-6.2,6.1-6.2c1.6,0,3.1,0.5,4.1,1.9
			l-0.9,0.8c-0.7-1.1-2-1.6-3.2-1.6c-3.1,0-5,2.3-5,5.2c0,3,1.9,5.2,5,5.2c1.2,0,2.7-0.6,3.5-1.8L214.7,130.3z"/>
		<path class="st13" d="M233.5,120.3h3.1c0.9,0,4.2,0,4.2,3.1c0,2.3-1.7,2.9-3,3.1l3.5,5.7H240l-3.3-5.6h-2.1v5.6h-1.1V120.3z
			 M234.6,125.5h2.3c2.3,0,2.8-1.3,2.8-2.1c0-0.8-0.5-2.1-2.8-2.1h-2.3V125.5z"/>
		<path class="st13" d="M262.6,127l-4.4-6.8h1.3l3.6,5.6l3.7-5.6h1.2l-4.4,6.8v5.1h-1.1V127z"/>
		<path class="st13" d="M286.3,120.3h3.4c1.7,0,3.8,0.7,3.8,3.1c0,2.1-1.7,3.1-3.6,3.1h-2.6v5.6h-1.1V120.3z M287.4,125.5h2.5
			c1.3,0,2.5-0.5,2.5-2.1c0-1.5-1.3-2.1-2.6-2.1h-2.4V125.5z"/>
		<path class="st13" d="M315.3,121.3h-4.1v-1h9.2v1h-4.1v10.9h-1.1V121.3z"/>
		<path class="st13" d="M344.5,120c3.6,0,6.1,2.6,6.1,6.2c0,3.6-2.5,6.2-6.1,6.2c-3.6,0-6.1-2.6-6.1-6.2
			C338.3,122.6,340.8,120,344.5,120z M344.5,131.4c3.1,0,5-2.3,5-5.2c0-3-1.9-5.2-5-5.2c-3.1,0-5,2.3-5,5.2
			C339.4,129.1,341.4,131.4,344.5,131.4z"/>
		<path class="st13" d="M379.6,130.3c-1.1,1.5-2.7,2.2-4.4,2.2c-3.6,0-6.1-2.6-6.1-6.2c0-3.6,2.5-6.2,6.1-6.2c1.6,0,3.1,0.5,4.1,1.9
			l-0.9,0.8c-0.7-1.1-2-1.6-3.2-1.6c-3.1,0-5,2.3-5,5.2c0,3,1.9,5.2,5,5.2c1.2,0,2.7-0.6,3.5-1.8L379.6,130.3z"/>
		<path class="st13" d="M406.8,127.6c0,2.5-1.1,4.8-4.3,4.8c-3.2,0-4.3-2.3-4.3-4.8v-7.3h1.1v7c0,1.7,0.5,4.1,3.2,4.1
			s3.2-2.4,3.2-4.1v-7h1.1V127.6z"/>
		<path class="st13" d="M426.6,120.3h3.1c0.9,0,4.2,0,4.2,3.1c0,2.3-1.7,2.9-3,3.1l3.5,5.7h-1.3l-3.3-5.6h-2.1v5.6h-1.1V120.3z
			 M427.7,125.5h2.3c2.3,0,2.8-1.3,2.8-2.1c0-0.8-0.5-2.1-2.8-2.1h-2.3V125.5z"/>
		<path class="st13" d="M453.3,120.3h3.1c0.9,0,4.2,0,4.2,3.1c0,2.3-1.7,2.9-3,3.1l3.5,5.7h-1.3l-3.3-5.6h-2.1v5.6h-1.1V120.3z
			 M454.4,125.5h2.3c2.3,0,2.8-1.3,2.8-2.1c0-0.8-0.5-2.1-2.8-2.1h-2.3V125.5z"/>
		<path class="st13" d="M480,120.3h7.3v1h-6.2v4.2h5.8v1h-5.8v4.6h6.4v1H480V120.3z"/>
		<path class="st13" d="M506.7,120.3h1.4l7.2,10.4h0v-10.4h1.1v11.9h-1.4l-7.2-10.4h0v10.4h-1.1V120.3z"/>
		<path class="st13" d="M546.3,130.3c-1.1,1.5-2.7,2.2-4.4,2.2c-3.6,0-6.1-2.6-6.1-6.2c0-3.6,2.5-6.2,6.1-6.2c1.6,0,3.1,0.5,4.1,1.9
			l-0.9,0.8c-0.7-1.1-2-1.6-3.2-1.6c-3.1,0-5,2.3-5,5.2c0,3,1.9,5.2,5,5.2c1.2,0,2.7-0.6,3.5-1.8L546.3,130.3z"/>
		<path class="st13" d="M567.7,127l-4.4-6.8h1.3l3.6,5.6l3.7-5.6h1.2l-4.4,6.8v5.1h-1.1V127z"/>
		<g>
			<path class="st14" d="M205.1,54.2h8.1v21.4h43.3V54.2h8.1v53.3h-8.1V83h-43.3v24.5h-8.1V54.2z"/>
			<path class="st14" d="M309.7,100.1h41.3v7.4h-49.4V54.2h49.4v7.4h-41.3v13.9h29.1V83h-29.1V100.1z"/>
			<path class="st14" d="M396.3,100.1h37v7.4h-45.1V54.2h8.1V100.1z"/>
			<path class="st14" d="M478.5,107.5h-8.1V54.2h8.1V107.5z"/>
			<g>
				<path d="M567.1,94.3c-0.6-1.3-1.5-2.4-2.4-3.6c-1.2-1.4-2.6-2.6-4.1-3.8c-1.6-1.3-3.4-2.4-5.2-3.4c-1.6-0.9-3.3-1.8-5-2.6
					c0.3-0.1,0.5-0.2,0.8-0.4c2.1-1.1,4.2-2.2,6.2-3.4c1.7-1.1,3.4-2.2,4.8-3.5c1.2-1.1,2.4-2.2,3.3-3.5c0.8-1.1,1.6-2.3,2.1-3.5
					c0.7-1.6,1.1-3.2,1.2-4.9l0.1-2.3c0-1.4,0-2.8,0-4.2c0-0.1,0-0.2,0-0.3c-0.1-0.5-0.5-0.6-1.1-0.6l-5.9,0c-0.6,0-1,0.1-1.1,0.5
					c-0.1,0.2-0.1,0.3-0.1,0.5c0,1.5,0,3,0,4.6l0,0c0,1-0.1,2-0.4,3.1c-0.3,1.2-0.9,2.3-1.6,3.4c-0.8,1.2-1.9,2.2-3.1,3.2
					c-1.8,1.5-3.8,2.7-5.9,3.9c-2.2,1.2-4.5,2.3-6.8,3.4c-0.2,0.1-0.5,0.2-0.7,0.3c-0.2-0.1-0.5-0.2-0.7-0.3
					c-2.3-1.1-4.6-2.1-6.8-3.4c-2.1-1.2-4.1-2.4-5.9-3.9c-0.8-0.7-1.6-1.4-2.3-2.3l0,0c-0.9-1.1-1.6-2.2-2.1-3.4
					c-0.2-0.6-0.4-1.2-0.5-1.8c-0.1-0.6-0.2-1.2-0.2-1.8c0-0.1,0-0.2,0-0.3c0-1.5,0-3,0-4.6c0-0.2,0-0.3-0.1-0.5
					c-0.1-0.4-0.5-0.5-1.1-0.5l0,0c0,0,0,0,0,0l-5.9,0c-0.6,0-1,0.1-1.1,0.6c0,0.1,0,0.2,0,0.3c0,1.4,0,2.8,0,4.2l0,0.1
					c0,1.5,0.1,3,0.4,4.4c0.1,0.6,0.3,1.1,0.5,1.7c0.1,0.3,0.3,0.7,0.4,1c0.5,1.2,1.3,2.4,2.1,3.5c0.9,1.3,2.1,2.4,3.3,3.5
					c1.5,1.3,3.1,2.4,4.8,3.5c2,1.3,4.1,2.4,6.2,3.4c0.3,0.1,0.5,0.2,0.8,0.4c-1.7,0.8-3.4,1.7-5,2.6c-1.8,1.1-3.6,2.2-5.2,3.4
					c-1.5,1.2-2.9,2.4-4.1,3.8c-1,1.1-1.8,2.3-2.4,3.6c-0.6,1.2-1.1,2.3-1.3,3.6c-0.4,1.5-0.5,3-0.4,4.5c0,1.4,0,2.8,0,4.2
					c0,0.1,0,0.2,0,0.3c0.1,0.5,0.5,0.6,1.1,0.6l5.9,0c0.6,0,1-0.1,1.1-0.5c0.1-0.2,0.1-0.3,0.1-0.5c0-1.5,0-3,0-4.6
					c0-1.3,0.2-2.6,0.7-3.9c0.5-1.2,1.2-2.4,2.1-3.4c1.1-1.3,2.4-2.4,3.9-3.5c1.8-1.4,3.8-2.5,5.9-3.5c2-1,3.9-1.9,5.9-2.8
					c2,0.9,3.9,1.9,5.9,2.8c2.1,1,4.1,2.2,5.9,3.5c1.4,1.1,2.8,2.2,3.9,3.5c0.9,1.1,1.6,2.2,2.1,3.4c0.5,1.3,0.7,2.6,0.7,3.9
					c0,1.5,0,3,0,4.6c0,0.2,0,0.3,0.1,0.5c0.1,0.4,0.5,0.5,1.1,0.5l5.9,0c0.6,0,1-0.1,1.1-0.6c0-0.1,0-0.2,0-0.3c0-1.4,0-2.8,0-4.2
					c0-1.5-0.1-3-0.4-4.5C568.1,96.6,567.6,95.4,567.1,94.3z"/>
				<line class="st15" x1="520.9" y1="61.1" x2="563.5" y2="61.1"/>
				<line class="st15" x1="520.9" y1="68.6" x2="563.5" y2="68.6"/>
				<line class="st15" x1="520.9" y1="93.1" x2="563.5" y2="93.1"/>
				<line class="st15" x1="520.9" y1="100.6" x2="563.5" y2="100.6"/>
			</g>
		</g>
	</g>
</g>
</svg>
